<?xml version="1.0" encoding="iso-8859-1"?>
<!-- Generator: Adobe Illustrator 18.0.0, SVG Export Plug-In . SVG Version: 6.00 Build 0)  -->
<!DOCTYPE svg PUBLIC "-//W3C//DTD SVG 1.1//EN" "http://www.w3.org/Graphics/SVG/1.1/DTD/svg11.dtd">
<svg version="1.1" id="Capa_1" xmlns="http://www.w3.org/2000/svg" xmlns:xlink="http://www.w3.org/1999/xlink" x="0px" y="0px"
	 viewBox="0 0 377.816 377.816" style="enable-background:new 0 0 377.816 377.816;" xml:space="preserve">
<path d="M370.316,35.066H7.5c-4.142,0-7.5,3.358-7.5,7.5v227.725c0,4.142,3.358,7.5,7.5,7.5h237.29l33.091,61.034
	c1.312,2.419,3.842,3.925,6.593,3.925s5.282-1.506,6.593-3.925l33.092-61.034h46.157c4.142,0,7.5-3.358,7.5-7.5V42.566
	C377.816,38.424,374.458,35.066,370.316,35.066z M268.35,156.426l94.466-95.604V252.03L268.35,156.426z M109.461,156.428L15,252.026
	V60.828L109.461,156.428z M25.453,50.066h326.904L188.905,215.488L25.453,50.066z M319.694,262.791
	c-2.751,0-5.282,1.506-6.593,3.925l-28.626,52.799l-28.626-52.799c-1.312-2.419-3.842-3.925-6.593-3.925H25.451l94.553-95.692
	l63.566,64.332c1.409,1.426,3.33,2.229,5.335,2.229s3.926-0.803,5.335-2.229l63.567-64.333l94.554,95.694H319.694z"/>
<g>
</g>
<g>
</g>
<g>
</g>
<g>
</g>
<g>
</g>
<g>
</g>
<g>
</g>
<g>
</g>
<g>
</g>
<g>
</g>
<g>
</g>
<g>
</g>
<g>
</g>
<g>
</g>
<g>
</g>
</svg>
